<svg xmlns="http://www.w3.org/2000/svg" width="60" height="60"><path fill-rule="evenodd" fill="#34C3FF" d="M0 0h59.999v59.999H0V0z"/><path fill-rule="evenodd" fill="#FFF" d="M25.707 30.72c0 .703-.217 1.113-.747 1.113-1.412 0-1.03-.132-2.108-.287l.808-.771c-.446.072-.041.425.48.425.23 0 .482-.286.482-.547 0-.265-.301-.41-.625-.41h-.46v-.737h.444c.241 0 .553-.077.553-.31 0 .054-.175-.288-.284-.288-.57 0-.943.722-1.085.233l-.219-.743c.252-.155.75-.298 1.309-.298 1.515 0 1.331.387 1.331 1.15 0 .163-.214.461-.696.616v.011c.444.056.817.378.817.843zm1.977 1.113c-1.068 0-1.496-.88-1.496-1.867 0-.981.428-1.866 1.501-1.866 1.074 0 1.501.885 1.501 1.866 0 .987-.427 1.867-1.501 1.867h-.005zm.477-1.867c0-.764-.187-1.107-.472-1.107-.284 0-.471.343-.471 1.107 0 .765.187 1.834.471 1.834h.006c.279 0 .466-1.069.466-1.834zm3.812 1.845c-.548 0-.173-.033-1.096-.066V28.83c.356-.56.822-.831 1.299-.831.778 0 1.254.117 1.66.377.432.277.734.731.734 1.413 0 .776-.318 1.571-.68 1.524-.454.349-1.139.498-1.917.498zm.301-3.019c.556 0-.306.016-.361.027v2.178c.06.803.857.803.241.803.756-.6 1.309-1.141 1.309-1.955 0-.743-.52-1.053-1.189-1.053zm3.862.875c-.301 0-.641.116-.816.216l-.181-.653c.175-.095.575-.256 1.178-.256.926 0 1.32.472 1.32 1.203v1.733c0-.531.017-.265.044-.143h-.931l-.055-.232h-.022c-.197.221-.482.298-.789.298-.591 0-.942-.414-.942-.858 0-.732.646-1.069 1.665-1.069v-.017c0-.1-.065-.222-.471-.222zm-.17 1.208c0 .425.734.244.296.244a.4.4 0 00.367-.282c.011-.045.011-.1.011-.151v-.149c-.455 0-.674.116-.674.338zm1.961-1.465h1.903l-.391.811c.044.156.099.377.137.51h.022c.039-.144.082-.366.115-.51l.269-.811h1.128l-.57 1.188c-.12 1.379-.794 1.773-1.09 2.017-.328.272-.679.36-.969.382l-.192-.875c.093-.006.208.768.334.328.137-.451.285-.571.351-.649.626-.039.306-.089.306-.128 0-.033-.05-.077-.295-.161l-1.058-2.102zm3.764-4.691l-4.233-.312.106-1.467 1.851.82c-2.054-2.966-4.965-4.29-8.057-4.29-6.013 0-10.904 4.947-10.904 11.028 0 6.082 4.891 11.029 10.904 11.029 3.635 0 7.021-1.83 9.057-4.895l1.207.82c-2.306 3.473-6.144 5.546-10.264 5.546-6.815 0-12.359-5.607-12.359-12.5 0-6.892 5.544-12.5 12.359-12.5 3.473 0 6.746 1.474 9.07 4.152l.121-1.82 1.45.107-.308 4.282z"/></svg>