<svg xmlns="http://www.w3.org/2000/svg" width="60" height="60"><path fill-rule="evenodd" fill="#FE3E57" d="M0 0h59.999v59.999H0V0z"/><path fill-rule="evenodd" fill="#FFF" d="M42.494 32.208l-4.149 4.766c-.19.22-.41.414-.652.578l-.017.011c-.576.421-1.525.635-2.525.635h-6.156c-.424 0-.853.024-1.274.073l-.471.076.079.288a.5.5 0 01.156.35.5.5 0 01-.146.36l-3.494 3.5a.513.513 0 01-.366.151.513.513 0 01-.353-.138l-5.965-5.546c.459-.091.339.628.039-.35-.201-.133.31-.263-.055-.358l3.527-3.314c.096-.358.229-.414.718-.415h.03c-.245 0-.115.051-.02.295l.726.535a7.232 7.232 0 011.322-1.386c1.484-1.183 3.24-1.546 5.077-1.049.705.19 1.449.287 2.212.287h4.047c.588 0 1.108.227 1.464.639.073.085.138.176.195.272l2.891-2.792c.423-.414.991-.156 1.597.134.534-.701 1.063-.484 1.452-.134.777.7.821 1.716.111 2.532zM21.54 34.81l-3.301 2.125 5.226 4.86 2.786-2.295-4.711-4.69zm20.15-4.399c-.416-.061-1.159-.491-1.14-.027l-3.824 3.217c-.014 1.209-.184.929-.482 1.272-.357.41-.882.638-1.476.638h-3.523c-.282 0-.511-.224-.511-.401 0-.374.229-.598.511-.598h3.523c.882 0 .532-.097.697-.286.152.284.239-.428.239-.693 0-.363-.194-.978-.92-.978h-4.047c-.855 0-1.277-.109-2.485-.323-1.525-.412-2.924-.122-3.312 1.688-1.439-.355-1.02.94-2.071.489l3.871 3.037.865-.169c1.025-.051.926-.078 1.389-.078h6.157c.798 0 1.459.211 1.966-.472.167-.114.318-.248.449-.399l4.149-4.767c.479-.451.19-.958-.025-1.15zm-12.416 5.087a.508.508 0 01-.614-.372l-.005-.02c-.065-.268.106-.537.705-.599-.049-.064.226.103.29.371l.005.02a.498.498 0 01-.381.6zm9.04-6.966h-4.983c.269 0-.522-.085-.726-.231a1.248 1.248 0 01-.727.231h-4.983c-.272 0-.522-.085-.727-.231a1.243 1.243 0 01-.726.231h-4.983c-.683 0-1.238-.542-1.238-1.209V25.55c0-1.19.584-2.4 1.458-2.836A2.826 2.826 0 0120 20.878c0-1.588 1.324-2.881 2.95-2.881 1.626 0 2.95 1.293 2.95 2.881 0 .697-.255 1.337-.679 1.836.378.189.701.462.947.793.246-.331.569-.604.947-.793a2.831 2.831 0 01-.679-1.836c0-1.588 1.324-2.881 2.95-2.881 1.744 0 2.95 1.293 2.95 2.881 0 .697.474 1.337-.679 1.836.693.189.702.462.948.792.245-.33.569-.603.947-.792a2.826 2.826 0 01-.679-1.836c0-1.588 1.323-2.881 2.95-2.881 1.626 0 2.95 1.293 2.95 2.881 0 .697-.256 1.337.167 1.836.028.436.612 1.646.612 2.836v1.773c0 .667-.555 1.209-1.238 1.209zM22.95 18.996c-1.062 0-1.72.844-1.72 1.882 0 1.037.658 1.882 1.72 1.882 1.18 0 1.927-.845 1.927-1.882 0-1.038-.747-1.882-1.927-1.882zm2.707 6.554c0-1.298.073-1.966-1.379-2.102a2.98 2.98 0 01-1.328.31c-.478 0-.74-.112-1.328-.31-.795.136-1.379.805-1.379 2.102v1.773c0 .116.097.211.216.211h4.983a.214.214 0 00.215-.211V25.55zm3.729-6.554c-1.062 0-1.927.844-1.927 1.882 0 1.037.865 1.882 1.927 1.882 1.063 0 1.927-.845 1.927-1.882 0-1.038-.864-1.882-1.927-1.882zm3.544 6.554c0-1.298-1.421-1.966-2.215-2.102-.4.198-.851.31-1.329.31-.477 0-.928-.112-.806-.31-1.316.136-1.9.805-1.9 2.102v1.773c0 .116.096.211.215.211h4.983c.119 0 1.052-.095 1.052-.211V25.55zm2.893-6.554c-1.063 0-1.927.844-1.927 1.882 0 1.037.864 1.882 1.927 1.882 1.062 0 1.927-.845 1.927-1.882 0-1.038-.865-1.882-1.927-1.882zm2.706 6.554c0-1.298-.583-1.966-1.378-2.102a2.98 2.98 0 01-1.328.31c-.478 0-.929-.112-1.329-.31-.794.136-1.378.805-1.378 2.102v1.773c0 .116.097.211.215.211h4.983a.213.213 0 00.215-.211V25.55z"/></svg>