<svg xmlns="http://www.w3.org/2000/svg" width="60" height="60"><path fill-rule="evenodd" fill="#FFB534" d="M0 0h59.999v59.999H0V0z"/><path fill-rule="evenodd" fill="#FFF" d="M36.1 35.161c.256 0 .537.278.537.619 0 .343-.281.619-.537.619h-9.443c-.346 0-.347-.276-.347-.619 0-.341.001-.619.347-.619H36.1zm-10.779-4.043c-.16 0-.321.462-.443-.181l-3.341-3.301c-.244-.242-.244-.436 0-.875a.631.631 0 01.886 0l2.898 2.863 5.57-5.504a.633.633 0 01.886 0c.433.242.433.634 0 .876l-6.013 5.941c-.123.643-.283.181-.443.181zM49.372 39.4h-2.047l.001.42c0 1.423-1.78 3.28-3.967 3.28-2.187 0-3.967-1.857-3.967-3.28l.001-.42H25.278l.001.42c0 1.423-1.78 3.28-3.967 3.28-2.187 0-3.967-1.857-3.967-3.28l.001-.42h-3.383c-.714 0-1.294-.934-1.294-1.639v-1.362h-2.046a.622.622 0 01-.627-.619c0-.341.281-.619.627-.619h6.013c.345 0 .626.278.626.619a.622.622 0 01-.626.619h-2.715v1.362c0 .023.019.041.042.041h3.6a3.972 3.972 0 013.749-2.641c2.148 0 3.211 1.107 4.298 2.641h12.95V33.14c0-.342-.223-.619.123-.619.607 0 .626.277.626.619v4.662h.302a3.969 3.969 0 013.748-2.64c2.571 0 3.211 1.106 3.749 2.64h1.638V35.79h-.386c-1.406 0-1.63-1.581-1.63-2.65v-1.321c0-.341-.376-.618-.03-.618h1.947a2.048 2.048 0 00-1.946-1.403h-7.392v.701c0 .343-.019.62-.626.62-.346 0-.123-.277-.123-.62V19.277c0-.023-.18-.042-.41-.042H13.963a.042.042 0 00-.042.042v11.222c0 .343-.28.619-.626.619a.622.622 0 01-.626-.619V19.277c0-.705.58-1.28 1.294-1.28H38.15c.578 0 1.159.575 1.159 1.28v1.361h4.961c1.208 0 2.388 1.167 2.388 2.6v.66a.62.62 0 01-.496.605l1.036 4.094c1.584.238 2.8 1.592 2.8 3.222v6.603c0 .341-.28.978-.626.978zm-28.06-3.001c-1.496 0-2.714 1.203-2.714 3.421 0 .741 1.218 1.943 2.714 1.943 1.497 0 2.948-1.202 2.948-1.943 0-2.218-1.451-3.421-2.948-3.421zm22.047 0c-1.496 0-2.714 1.203-2.714 3.421 0 .741 1.218 1.943 2.714 1.943 1.497 0 3.371-1.202 3.371-1.943 0-2.218-1.874-3.421-3.371-3.421zm2.046-13.161c0-.751-.618-1.362-1.135-1.362h-4.961v1.403h6.096v-.041zm-.53 1.279h-5.566v4.044h6.589l-1.023-4.044zm3.871 7.921h-1.42v.702c0 .387.319.702 1.034.702h.386v-1.404zm-5.387 7.922c-.713 0-.709-.573-.709-.54 0-1.444-.004-2.018.709-2.018 1.371 0 1.295.574 1.295 2.018 0-.033.076.54-1.295.54zm-22.047 0c-.714 0-1.132-.573-1.132-.54 0-1.444.418-2.018 1.132-2.018.948 0 1.295.574 1.295 2.018 0-.033-.347.54-1.295.54zm-.71-7.22c0 .342-.28.619-.626.619h-8.017a.622.622 0 01-.626-.619c0-.342.28-.619.626-.619h8.017c.346 0 .626.277.626.619z"/></svg>