<svg xmlns="http://www.w3.org/2000/svg" width="px" height="20" viewBox="0 0 33 20"><g id="surface1"><path d="M32.785 10.055c0 5.437-4.363 9.847-9.746 9.847-5.383.004-9.746-4.406-9.75-9.84v-.007c0-5.438 4.363-9.844 9.746-9.848 5.383 0 9.746 4.406 9.75 9.844v.004zm0 0" fill="#f90"/><path d="M9.898.21C4.551.247.215 4.64.215 10.056c0 5.433 4.367 9.847 9.75 9.847a9.662 9.662 0 006.558-2.566h-.003.003c.356-.328.684-.68.989-1.055h-1.996a9.63 9.63 0 01-.727-1.015h3.445a9.72 9.72 0 00.567-1.055h-4.582a9.93 9.93 0 01-.406-1.031h5.394a9.958 9.958 0 00.277-5.235h-5.957c.075-.347.168-.691.278-1.03h5.398a9.572 9.572 0 00-.422-1.056H14.22c.164-.355.351-.699.558-1.035h3.442a9.96 9.96 0 00-.754-1.054h-1.918c.293-.352.621-.684.976-.993A9.662 9.662 0 009.965.211h-.067zm0 0" fill="#c00"/><path d="M31.805 15.203a.32.32 0 01.156.04.27.27 0 01.117.12.331.331 0 01.043.157.34.34 0 01-.043.16.282.282 0 01-.117.117.313.313 0 01-.156.043.325.325 0 01-.274-.16.335.335 0 010-.317.316.316 0 01.273-.16m0 .05a.267.267 0 00-.226.134.27.27 0 000 .266.267.267 0 00.227.133.26.26 0 00.23-.133.282.282 0 00-.004-.266.235.235 0 00-.097-.098.246.246 0 00-.13-.035m-.136.441v-.34h.117c.04 0 .067 0 .086.008a.13.13 0 01.043.035.111.111 0 01.016.047.086.086 0 01-.028.067.086.086 0 01-.07.031c.012.004.023.012.027.02a.26.26 0 01.051.066l.043.066h-.066l-.032-.05a.275.275 0 00-.058-.082c-.008-.008-.024-.012-.043-.012h-.031v.144h-.055m.055-.191h.066c.031 0 .055-.004.063-.016a.041.041 0 00.02-.035.056.056 0 00-.009-.027c-.008-.008-.015-.016-.023-.02a.162.162 0 00-.055-.008h-.062v.106" fill="#fcb340"/><path d="M13.195 12.879l.133-.89c-.07 0-.176.03-.27.03-.359 0-.406-.195-.374-.335l.355-1.793h.547l.113-1.012h-.515l.105-.613h-1.082c-.023.023-.613 3.445-.613 3.863 0 .617.344.894.824.887.379 0 .676-.106.777-.137zm.332-1.699c0 1.484.965 1.836 1.793 1.836.758 0 1.16-.18 1.16-.18l.18-1.012s-.64.266-1.164.266c-1.113 0-.918-.84-.918-.84l2.14.008s.137-.68.137-.957c0-.692-.375-1.54-1.511-1.54-1.047 0-1.817 1.137-1.817 2.419zm1.82-1.48c.583 0 .477.667.477.718h-1.152c0-.066.11-.719.676-.719zm6.571 3.179l.184-1.14s-.508.257-.86.257c-.734 0-1.031-.57-1.031-1.18 0-1.238.637-1.918 1.34-1.918.527 0 .953.301.953.301l.168-1.11s-.5-.366-1.04-.37c-1.62-.004-2.55 1.136-2.55 3.11 0 1.304.688 2.194 1.926 2.194.351 0 .91-.144.91-.144zM7.488 8.777c-.71 0-1.254.23-1.254.23l-.152.907s.45-.187 1.129-.187c.387 0 .672.046.672.363 0 .191-.035.262-.035.262s-.305-.024-.446-.024c-1.015 0-1.84.387-1.84 1.55 0 .923.618 1.134 1 1.134.735 0 1.024-.469 1.04-.469l-.008.387h.914l.406-2.887c0-1.227-1.059-1.266-1.426-1.266zm.16 2.344c.02.176-.046 1.012-.671 1.012-.32 0-.407-.25-.407-.399 0-.285.157-.629.914-.629.18 0 .133.012.164.016zm2.239 1.867c.234 0 1.57.063 1.57-1.332 0-1.3-1.238-1.047-1.238-1.566 0-.262.203-.344.57-.344.145 0 .711.047.711.047l.129-.926s-.363-.082-.957-.082c-.77 0-1.547.309-1.547 1.367 0 1.203 1.3 1.082 1.3 1.586 0 .34-.363.367-.644.367-.484 0-.922-.168-.922-.16l-.136.914c.023.008.293.13 1.164.13zm20.59-5.05l-.188 1.414s-.39-.547-1.004-.547c-1.148 0-1.742 1.16-1.742 2.488 0 .86.422 1.703 1.289 1.703.621 0 .965-.437.965-.437l-.047.37h1.012l.793-4.984zm-.446 2.746c0 .554-.273 1.293-.832 1.293-.375 0-.55-.317-.55-.813 0-.812.363-1.351.816-1.351.375 0 .566.261.566.87zm-28.16 2.25l.633-3.762.09 3.762h.715l1.336-3.762-.59 3.762h1.062l.817-4.989-1.688-.015-1.004 3.058-.027-3.043H1.668L.84 12.934zm0 0" fill="#006"/><path d="M17.86 12.941c.3-1.734.41-3.105 1.288-2.82.13-.672.43-1.254.567-1.539 0 0-.043-.066-.317-.066-.464 0-1.085.953-1.085.953l.093-.59h-.965l-.648 4.062zm6.23-4.164a3.58 3.58 0 00-1.258.23l-.148.907s.449-.187 1.128-.187c.387 0 .672.046.672.363 0 .191-.035.262-.035.262s-.304-.024-.445-.024c-1.016 0-1.844.387-1.844 1.55 0 .923.621 1.134 1.004 1.134.73 0 1.023-.469 1.04-.469l-.009.387h.914l.407-2.887c0-1.227-1.059-1.266-1.426-1.266zm.16 2.344c.02.176-.047 1.012-.672 1.012-.32 0-.406-.25-.406-.399 0-.285.156-.629.914-.629.18 0 .133.012.164.016zm2.316 1.82c.168-1.277.473-3.066 1.293-2.82.125-.672.004-.672-.27-.672-.464 0-.566.02-.566.02l.09-.59h-.965L25.5 12.94zm0 0" fill="#006"/><path d="M13.469 12.563l.129-.891c-.07 0-.176.031-.266.031-.363 0-.402-.195-.379-.34l.29-1.816h.55l.133-.985h-.52l.106-.613h-1.035c-.024.024-.614 3.446-.614 3.864 0 .617.344.89.828.886.38-.004.672-.11.778-.136zm.328-1.7c0 1.48.969 1.832 1.793 1.832.762 0 1.094-.172 1.094-.172l.183-1.007s-.578.254-1.101.254c-1.114 0-.918-.836-.918-.836h2.109s.137-.68.137-.957c0-.692-.344-1.532-1.48-1.532-1.044 0-1.817 1.133-1.817 2.418zm1.82-1.48c.586 0 .477.664.477.719H14.94c0-.07.11-.72.676-.72zm6.571 3.18l.187-1.145s-.512.258-.86.258c-.738 0-1.03-.567-1.03-1.176 0-1.238.632-1.918 1.335-1.918.532 0 .953.297.953.297l.172-1.11s-.629-.257-1.168-.257c-1.199 0-2.363 1.05-2.363 3.023 0 1.305.629 2.172 1.867 2.172.348 0 .907-.145.907-.145zM7.762 8.46c-.715 0-1.258.231-1.258.231l-.152.903S6.8 9.41 7.484 9.41c.387 0 .668.043.668.36 0 .195-.035.265-.035.265s-.305-.027-.445-.027c-.899 0-1.84.387-1.84 1.555 0 .917.617 1.128 1 1.128.734 0 1.05-.48 1.066-.48l-.035.398h.914l.407-2.886c0-1.223-1.055-1.262-1.422-1.262zm.222 2.352c.02.176-.113 1-.734 1-.324 0-.406-.246-.406-.394 0-.285.152-.633.914-.633.176 0 .195.02.226.027zm2.172 1.86c.235 0 1.57.058 1.57-1.332 0-1.305-1.238-1.047-1.238-1.57 0-.262.203-.344.57-.344.149 0 .712.05.712.05l.128-.925s-.363-.086-.957-.086c-.765 0-1.546.312-1.546 1.37 0 1.2 1.3 1.08 1.3 1.587 0 .336-.363.363-.644.363-.485 0-.918-.168-.922-.16l-.137.918c.024.008.293.129 1.164.129zm20.629-5.043L30.56 9.03s-.391-.543-1-.543c-.954 0-1.747 1.157-1.747 2.489 0 .859.426 1.699 1.29 1.699.62 0 .964-.438.964-.438l-.043.375h1.008l.793-4.984zm-.484 2.738c0 .551-.27 1.293-.832 1.293-.375 0-.551-.316-.551-.816 0-.813.363-1.348.82-1.348.371 0 .563.258.563.871zM2.14 12.617l.633-3.762.094 3.762h.715l1.332-3.762-.59 3.762h1.063l.816-4.992h-1.64l-1.024 3.063-.055-3.063H1.97l-.828 4.992zm15.989.008c.305-1.734.36-3.145 1.078-2.887.129-.672.25-.93.387-1.215 0 0-.063-.015-.2-.015-.464 0-.808.64-.808.64l.094-.585h-.97l-.648 4.062zm6.453-4.165c-.71 0-1.258.231-1.258.231l-.148.903s.449-.184 1.129-.184c.386 0 .668.043.668.36 0 .195-.032.265-.032.265s-.304-.027-.449-.027c-.894 0-1.84.387-1.84 1.555 0 .917.621 1.128 1.004 1.128.73 0 1.047-.48 1.063-.48l-.032.398h.915l.406-2.886c0-1.223-1.059-1.262-1.426-1.262zm.223 2.352c.02.176-.11 1-.735 1-.324 0-.406-.246-.406-.394 0-.285.156-.633.914-.633.18 0 .195.02.227.027zm2.039 1.813c.3-1.734.355-3.145 1.078-2.887.125-.672.246-.93.387-1.215 0 0-.067-.015-.204-.015-.464 0-.808.64-.808.64l.094-.585h-.965l-.649 4.062zm4.956-.629a.325.325 0 01.274.16.34.34 0 01.043.16.325.325 0 01-.043.157.317.317 0 01-.117.12.32.32 0 01-.156.04.32.32 0 01-.156-.04.317.317 0 01-.118-.12.325.325 0 01-.043-.157.34.34 0 01.043-.16c.028-.05.07-.09.118-.117a.337.337 0 01.156-.043m0 .055a.267.267 0 00-.13.035.215.215 0 00-.097.098.27.27 0 000 .265.26.26 0 00.227.133.27.27 0 00.133-.035.292.292 0 00.097-.098.315.315 0 00.032-.133.27.27 0 00-.036-.132.215.215 0 00-.097-.098.256.256 0 00-.13-.035m-.136.441v-.344h.117c.04 0 .067.004.086.012a.082.082 0 01.043.031.11.11 0 01.016.051.091.091 0 01-.028.067.118.118 0 01-.07.03c.012.005.024.009.027.016a.297.297 0 01.051.07l.043.067h-.066l-.031-.055c-.024-.042-.043-.07-.059-.078-.008-.007-.023-.011-.043-.011h-.031v.144h-.055m.055-.195h.066c.031 0 .055-.004.063-.012.011-.012.02-.023.02-.039 0-.012-.005-.02-.009-.027a.082.082 0 00-.023-.016.162.162 0 00-.055-.008h-.062v.102" fill="#fff"/></g></svg>