<svg xmlns="http://www.w3.org/2000/svg" width="px" height="20" viewBox="0 0 82 20"><g id="surface1" fill-rule="evenodd"><path d="M7.246 4.707h5.59c3 0 4.129 1.535 3.953 3.785-.289 3.719-2.516 5.778-5.469 5.778H9.828c-.406 0-.68.27-.789 1.003l-.633 4.27c-.043.273-.183.434-.402.457H4.492c-.328 0-.445-.254-.36-.809L6.274 5.516c.082-.547.38-.809.973-.809zm0 0" fill="#009ee3"/><path d="M31.508 4.453c1.887 0 3.625 1.035 3.387 3.606-.29 3.058-1.91 4.75-4.473 4.757h-2.238c-.32 0-.477.266-.559.809l-.434 2.777c-.066.418-.277.625-.593.625h-2.082c-.332 0-.446-.215-.371-.691l1.718-11.129c.082-.55.285-.754.657-.754zm-3.39 5.961h1.695c1.058-.043 1.765-.781 1.835-2.121.043-.824-.511-1.414-1.39-1.41l-1.594.008zm12.437 5.762c.187-.176.383-.266.355-.051l-.066.516c-.035.27.07.414.316.414h1.852c.308 0 .46-.13.539-.614l1.136-7.218c.06-.364-.027-.543-.3-.543h-2.035c-.184 0-.274.105-.32.386l-.075.446c-.039.23-.145.273-.242.039-.344-.824-1.227-1.196-2.453-1.164-2.852.058-4.774 2.246-4.98 5.047-.16 2.164 1.378 3.867 3.406 3.867 1.472 0 2.128-.438 2.87-1.121zm-1.551-1.11c-1.227 0-2.082-.988-1.906-2.203.18-1.21 1.328-2.199 2.554-2.199 1.227 0 2.082.988 1.907 2.2-.18 1.214-1.325 2.202-2.555 2.202zm9.305-6.41h-1.875c-.387 0-.543.293-.422.653l2.328 6.879-2.281 3.277c-.196.273-.047.523.226.523h2.106a.645.645 0 00.625-.312l7.16-10.367c.222-.32.117-.653-.242-.653h-1.996c-.344 0-.481.137-.676.422l-2.985 4.371-1.336-4.379c-.078-.265-.273-.414-.632-.414zm0 0" fill="#113984"/><path d="M63.625 4.453c1.887 0 3.625 1.035 3.39 3.606-.288 3.058-1.913 4.75-4.472 4.757h-2.238c-.32 0-.477.266-.559.809l-.434 2.777c-.066.418-.277.625-.593.625h-2.082c-.332 0-.446-.215-.371-.691l1.718-11.133c.086-.547.29-.75.66-.75zm-3.387 5.961h1.696c1.058-.043 1.761-.781 1.832-2.121.043-.824-.508-1.414-1.387-1.41l-1.594.008zm12.434 5.762c.191-.176.383-.266.355-.051l-.066.516c-.035.27.07.414.32.414h1.848c.312 0 .465-.13.539-.614l1.14-7.218c.06-.364-.03-.543-.304-.543h-2.031c-.18 0-.27.105-.32.386l-.075.446c-.039.23-.144.273-.242.039-.344-.824-1.223-1.196-2.453-1.164-2.852.058-4.774 2.246-4.98 5.047-.157 2.164 1.378 3.867 3.41 3.867 1.468 0 2.128-.438 2.867-1.121zm-1.547-1.11c-1.227 0-2.082-.988-1.906-2.203.18-1.21 1.328-2.199 2.554-2.199 1.227 0 2.082.988 1.907 2.2-.18 1.214-1.328 2.202-2.555 2.202zm8.531 2H77.52a.248.248 0 01-.2-.086.246.246 0 01-.062-.207l1.875-11.992a.367.367 0 01.355-.289h2.137a.25.25 0 01.258.29l-1.875 11.991a.367.367 0 01-.352.297zm0 0" fill="#009ee3"/><path d="M3.75 0h5.594c1.574 0 3.445.05 4.695 1.164.836.746 1.274 1.93 1.172 3.203-.344 4.313-2.899 6.73-6.324 6.73H6.129c-.473 0-.781.313-.914 1.165l-.77 4.949c-.05.32-.187.512-.433.535H.559c-.383 0-.516-.293-.418-.937L2.62.94C2.723.305 3.071 0 3.75 0zm0 0" fill="#113984"/><path d="M5.297 11.758l.976-6.242c.082-.547.38-.809.973-.809h5.59c.922 0 1.672.145 2.258.414-.563 3.84-3.02 5.969-6.242 5.969H6.098c-.368.004-.641.187-.801.668zm0 0" fill="#172c70"/></g></svg>