<svg xmlns="http://www.w3.org/2000/svg" width="px" height="20" viewBox="0 0 31 20"><g id="surface1"><path d="M0 0v19.988h30.977V0zm0 0" fill="#004d8f"/><path d="M.371.375h30.234v19.238H.371zm0 0" fill="#fff"/><path d="M29.398 5.926v-4.11H1.492v4.11zm0 0" fill="#004d8f"/><path d="M29.398 18.324V14.22H1.492v4.105zm0 0" fill="#ffa425"/><path d="M19.844 13.484h-1.43l3.809-6.37h1.609l.547 6.37h-1.68l-.12-1.472h-1.93zm1.254-2.304h1.414l-.18-2.266zm-4.239 2.324c.575-.098.996-.285 1.371-.586.747-.602 1.016-1.66.586-2.355-.222-.36-.68-.614-1.054-.856-.375-.242-.676-.469-.801-.727-.125-.257-.094-.558.07-.722.426-.426 1.114-.317 1.625-.176.29.082.524.203.723.371l.59-.957c-.274-.2-.586-.34-1.028-.441a5.145 5.145 0 00-1.503-.133 2.57 2.57 0 00-1.29.426c-.375.25-.699.605-.878.992-.184.387-.235.8-.114 1.156.246.715.883 1.031 1.446 1.371.246.149.457.32.57.524.117.199.133.437-.004.632-.14.196-.43.352-.766.407-.332.054-.71.011-1.066-.098a3.017 3.017 0 01-.961-.504l-.371 1.117c.785.703 1.898.72 2.855.559zm-1.89-6.39H13.19l-1.992 6.37h1.774zm-2.274 0l-3.883 6.37H7.125l-.152-5.043c-.008-.226-.016-.464-.102-.648a.815.815 0 00-.394-.398 1.368 1.368 0 00-.622-.137v-.145h2.786l.136 4.336 2.489-4.336zm0 0" fill="#004d8f"/><path d="M28.441 17.078a.515.515 0 00-.515.516c0 .289.23.52.515.52a.515.515 0 00.512-.52.514.514 0 00-.512-.516zm0 .074c.243 0 .434.2.434.442a.438.438 0 01-.434.445.441.441 0 01-.437-.445.44.44 0 01.437-.442zm.082.465c.102 0 .18-.043.184-.16a.161.161 0 00-.066-.125.264.264 0 00-.141-.031h-.25v.586h.07v-.27h.13l.163.27h.082zm-.203-.055v-.207h.164c.07 0 .149.012.149.102 0 .117-.125.105-.203.105zm0 0" fill="#fff"/><path d="M24.79 6.945a.516.516 0 00-.517.52c0 .289.23.52.516.52a.516.516 0 00.512-.52c0-.29-.23-.52-.512-.52zm0 .078c.241 0 .433.2.433.442a.434.434 0 01-.434.441.438.438 0 01-.437-.441.44.44 0 01.437-.442zm.081.465c.102 0 .18-.043.184-.16a.161.161 0 00-.067-.125.264.264 0 00-.14-.031h-.254v.582h.074v-.266h.129l.16.266h.086zm-.203-.054v-.207h.164c.07 0 .148.011.148.097 0 .121-.125.11-.207.11zm0 0" fill="#004d8f"/></g></svg>